<?xml version="1.0" encoding="utf-8"?>
<!-- Generator: Adobe Illustrator 23.0.2, SVG Export Plug-In . SVG Version: 6.00 Build 0)  -->
<svg version="1.1" id="Layer_1" xmlns="http://www.w3.org/2000/svg" xmlns:xlink="http://www.w3.org/1999/xlink" x="0px" y="0px"
	 viewBox="0 0 1000 1000" style="enable-background:new 0 0 1000 1000;" xml:space="preserve">
<style type="text/css">
	.st0{fill:url(#SVGID_1_);}
	.st1{display:none;}
	.st2{fill:url(#SVGID_2_);}
	.st3{filter:url(#Adobe_OpacityMaskFilter);}
	.st4{fill:#FFFFFF;}
	.st5{mask:url(#SVGID_3_);fill:url(#SVGID_4_);}
	.st6{fill:url(#SVGID_5_);}
	.st7{fill:url(#SVGID_6_);}
	.st8{clip-path:url(#SVGID_8_);}
	.st9{fill:#FDE879;}
	.st10{fill:#CDA31E;}
	.st11{fill:#F3F5CE;}
	.st12{fill:#ECEF9A;}
	.st13{fill:#D59630;}
</style>
<linearGradient id="SVGID_1_" gradientUnits="userSpaceOnUse" x1="138.2148" y1="646.8633" x2="922.1861" y2="320.4937">
	<stop  offset="0" style="stop-color:#FDE879"/>
	<stop  offset="3.384044e-02" style="stop-color:#FBE575"/>
	<stop  offset="6.983764e-02" style="stop-color:#F4DB68"/>
	<stop  offset="0.1068" style="stop-color:#E9CB53"/>
	<stop  offset="0.1443" style="stop-color:#D9B535"/>
	<stop  offset="0.1683" style="stop-color:#CDA31E"/>
	<stop  offset="0.2178" style="stop-color:#CEA523"/>
	<stop  offset="0.2729" style="stop-color:#D1AB30"/>
	<stop  offset="0.3307" style="stop-color:#D6B646"/>
	<stop  offset="0.3903" style="stop-color:#DCC465"/>
	<stop  offset="0.4514" style="stop-color:#E5D78E"/>
	<stop  offset="0.5129" style="stop-color:#F0EDBE"/>
	<stop  offset="0.5314" style="stop-color:#F3F5CE"/>
	<stop  offset="0.6076" style="stop-color:#ECEF9A"/>
	<stop  offset="1" style="stop-color:#D59630"/>
</linearGradient>
<circle class="st0" cx="500" cy="496.3" r="424.5"/>
<path id="B" class="st1" d="M534.8,499.4c7.5-8.4,12.1-19.4,12.1-31.5V358.6c0-26.1-21.3-47.4-47.4-47.4h-1.1
	c-26.1,0-47.4,21.3-47.4,47.4l1.1,282.8c0,26.1,21.3,47.4,47.4,47.4h1.1c26.1,0,47.4-21.3,47.4-47.4V532
	C547.9,519.4,542.9,507.9,534.8,499.4z M514.9,641.2c0,8.2-6.7,14.9-14.9,14.9c-8.2,0-14.9-6.7-14.9-14.9V528.3
	c0-8.2,6.7-14.9,14.9-14.9c8.2,0,14.9,6.7,14.9,14.9V641.2z M514.9,469.7c0,8.2-6.7,14.9-14.9,14.9c-8.2,0-14.9-6.7-14.9-14.9V356.8
	c0-8.2,6.7-14.9,14.9-14.9c8.2,0,14.9,6.7,14.9,14.9V469.7z"/>
<path class="st1" d="M599.8,651.1L599.8,651.1c-9.2,0-16.7-7.5-16.7-16.7V365.6c0-9.2,7.5-16.7,16.7-16.7h0
	c9.2,0,16.7,7.5,16.7,16.7v268.8C616.5,643.6,609,651.1,599.8,651.1z"/>
<path class="st1" d="M666.3,587.3L666.3,587.3c-9.2,0-16.7-7.5-16.7-16.7V429.4c0-9.2,7.5-16.7,16.7-16.7h0
	c9.2,0,16.7,7.5,16.7,16.7v141.2C683,579.8,675.5,587.3,666.3,587.3z"/>
<path class="st1" d="M732.8,608.6L732.8,608.6c-9.2,0-16.7-7.5-16.7-16.7V408.1c0-9.2,7.5-16.7,16.7-16.7l0,0
	c9.2,0,16.7,7.5,16.7,16.7v183.9C749.5,601.1,742.1,608.6,732.8,608.6z"/>
<path class="st1" d="M799.4,546.1L799.4,546.1c-9.2,0-16.7-7.5-16.7-16.7v-58.9c0-9.2,7.5-16.7,16.7-16.7l0,0
	c9.2,0,16.7,7.5,16.7,16.7v58.9C816,538.6,808.6,546.1,799.4,546.1z"/>
<path class="st1" d="M400.2,651.1L400.2,651.1c9.2,0,16.7-7.5,16.7-16.7V365.6c0-9.2-7.5-16.7-16.7-16.7h0
	c-9.2,0-16.7,7.5-16.7,16.7v268.8C383.5,643.6,391,651.1,400.2,651.1z"/>
<path class="st1" d="M333.7,587.3L333.7,587.3c9.2,0,16.7-7.5,16.7-16.7V429.4c0-9.2-7.5-16.7-16.7-16.7h0
	c-9.2,0-16.7,7.5-16.7,16.7v141.2C317,579.8,324.5,587.3,333.7,587.3z"/>
<path class="st1" d="M267.2,608.6L267.2,608.6c9.2,0,16.7-7.5,16.7-16.7V408.1c0-9.2-7.5-16.7-16.7-16.7h0
	c-9.2,0-16.7,7.5-16.7,16.7v183.9C250.5,601.1,257.9,608.6,267.2,608.6z"/>
<path class="st1" d="M200.6,546.1L200.6,546.1c9.2,0,16.7-7.5,16.7-16.7v-58.9c0-9.2-7.5-16.7-16.7-16.7h0
	c-9.2,0-16.7,7.5-16.7,16.7v58.9C184,538.6,191.4,546.1,200.6,546.1z"/>
<linearGradient id="SVGID_2_" gradientUnits="userSpaceOnUse" x1="216.7457" y1="673.5883" x2="885.2103" y2="255.0821">
	<stop  offset="0" style="stop-color:#151716"/>
	<stop  offset="0.2622" style="stop-color:#171918"/>
	<stop  offset="0.3565" style="stop-color:#1C1F1F"/>
	<stop  offset="0.4236" style="stop-color:#272A2A"/>
	<stop  offset="0.43" style="stop-color:#282B2C"/>
	<stop  offset="0.4885" style="stop-color:#35383B"/>
	<stop  offset="0.5695" style="stop-color:#3F4346"/>
	<stop  offset="0.6835" style="stop-color:#45494D"/>
	<stop  offset="1" style="stop-color:#474B4F"/>
</linearGradient>
<circle class="st2" cx="500" cy="496.3" r="394.3"/>
<defs>
	<filter id="Adobe_OpacityMaskFilter" filterUnits="userSpaceOnUse" x="170.5" y="302.7" width="659" height="394.7">
		<feColorMatrix  type="matrix" values="1 0 0 0 0  0 1 0 0 0  0 0 1 0 0  0 0 0 1 0"/>
	</filter>
</defs>
<mask maskUnits="userSpaceOnUse" x="170.5" y="302.7" width="659" height="394.7" id="SVGID_3_">
	<g class="st3">
		<g>
			<path id="B_1_" class="st4" d="M534.8,499.4c7.5-8.4,12.1-19.4,12.1-31.5V358.6c0-26.1-21.3-47.4-47.4-47.4h-1.1
				c-26.1,0-47.4,21.3-47.4,47.4l1.1,282.8c0,26.1,21.3,47.4,47.4,47.4h1.1c26.1,0,47.4-21.3,47.4-47.4V532
				C547.9,519.4,542.9,507.9,534.8,499.4z M514.9,641.2c0,8.2-6.7,14.9-14.9,14.9c-8.2,0-14.9-6.7-14.9-14.9V528.3
				c0-8.2,6.7-14.9,14.9-14.9c8.2,0,14.9,6.7,14.9,14.9V641.2z M514.9,469.7c0,8.2-6.7,14.9-14.9,14.9c-8.2,0-14.9-6.7-14.9-14.9
				V356.8c0-8.2,6.7-14.9,14.9-14.9c8.2,0,14.9,6.7,14.9,14.9V469.7z"/>
			<path class="st4" d="M599.8,651.1L599.8,651.1c-9.2,0-16.7-7.5-16.7-16.7V365.6c0-9.2,7.5-16.7,16.7-16.7h0
				c9.2,0,16.7,7.5,16.7,16.7v268.8C616.5,643.6,609,651.1,599.8,651.1z"/>
			<path class="st4" d="M666.3,587.3L666.3,587.3c-9.2,0-16.7-7.5-16.7-16.7V429.4c0-9.2,7.5-16.7,16.7-16.7h0
				c9.2,0,16.7,7.5,16.7,16.7v141.2C683,579.8,675.5,587.3,666.3,587.3z"/>
			<path class="st4" d="M732.8,608.6L732.8,608.6c-9.2,0-16.7-7.5-16.7-16.7V408.1c0-9.2,7.5-16.7,16.7-16.7l0,0
				c9.2,0,16.7,7.5,16.7,16.7v183.9C749.5,601.1,742.1,608.6,732.8,608.6z"/>
			<path class="st4" d="M799.4,546.1L799.4,546.1c-9.2,0-16.7-7.5-16.7-16.7v-58.9c0-9.2,7.5-16.7,16.7-16.7l0,0
				c9.2,0,16.7,7.5,16.7,16.7v58.9C816,538.6,808.6,546.1,799.4,546.1z"/>
			<path class="st4" d="M400.2,651.1L400.2,651.1c9.2,0,16.7-7.5,16.7-16.7V365.6c0-9.2-7.5-16.7-16.7-16.7h0
				c-9.2,0-16.7,7.5-16.7,16.7v268.8C383.5,643.6,391,651.1,400.2,651.1z"/>
			<path class="st4" d="M333.7,587.3L333.7,587.3c9.2,0,16.7-7.5,16.7-16.7V429.4c0-9.2-7.5-16.7-16.7-16.7h0
				c-9.2,0-16.7,7.5-16.7,16.7v141.2C317,579.8,324.5,587.3,333.7,587.3z"/>
			<path class="st4" d="M267.2,608.6L267.2,608.6c9.2,0,16.7-7.5,16.7-16.7V408.1c0-9.2-7.5-16.7-16.7-16.7h0
				c-9.2,0-16.7,7.5-16.7,16.7v183.9C250.5,601.1,257.9,608.6,267.2,608.6z"/>
			<path class="st4" d="M200.6,546.1L200.6,546.1c9.2,0,16.7-7.5,16.7-16.7v-58.9c0-9.2-7.5-16.7-16.7-16.7h0
				c-9.2,0-16.7,7.5-16.7,16.7v58.9C184,538.6,191.4,546.1,200.6,546.1z"/>
		</g>
	</g>
</mask>
<linearGradient id="SVGID_4_" gradientUnits="userSpaceOnUse" x1="451.1205" y1="357.1152" x2="555.1032" y2="661.078">
	<stop  offset="0" style="stop-color:#FDE879"/>
	<stop  offset="3.384044e-02" style="stop-color:#FBE575"/>
	<stop  offset="6.983764e-02" style="stop-color:#F4DB68"/>
	<stop  offset="0.1068" style="stop-color:#E9CB53"/>
	<stop  offset="0.1443" style="stop-color:#D9B535"/>
	<stop  offset="0.1683" style="stop-color:#CDA31E"/>
	<stop  offset="0.2178" style="stop-color:#CEA523"/>
	<stop  offset="0.2729" style="stop-color:#D1AB30"/>
	<stop  offset="0.3307" style="stop-color:#D6B646"/>
	<stop  offset="0.3903" style="stop-color:#DCC465"/>
	<stop  offset="0.4514" style="stop-color:#E5D78E"/>
	<stop  offset="0.5129" style="stop-color:#F0EDBE"/>
	<stop  offset="0.5314" style="stop-color:#F3F5CE"/>
	<stop  offset="0.6076" style="stop-color:#ECEF9A"/>
	<stop  offset="1" style="stop-color:#D59630"/>
</linearGradient>
<rect x="170.5" y="302.7" class="st5" width="659" height="394.7"/>
<g>
	<linearGradient id="SVGID_5_" gradientUnits="userSpaceOnUse" x1="455.1891" y1="745.4296" x2="527.1891" y2="690.7095">
		<stop  offset="0" style="stop-color:#CDA31E"/>
		<stop  offset="0" style="stop-color:#CEA523"/>
		<stop  offset="0" style="stop-color:#D1AB30"/>
		<stop  offset="0" style="stop-color:#D1AC32"/>
		<stop  offset="4.514918e-02" style="stop-color:#D2AF38"/>
		<stop  offset="0.1071" style="stop-color:#D6B74A"/>
		<stop  offset="0.1787" style="stop-color:#DDC567"/>
		<stop  offset="0.2576" style="stop-color:#E5D88F"/>
		<stop  offset="0.3416" style="stop-color:#F0F0C2"/>
		<stop  offset="0.3591" style="stop-color:#F3F5CE"/>
		<stop  offset="0.6993" style="stop-color:#D6B546"/>
		<stop  offset="0.7569" style="stop-color:#D8BB4F"/>
		<stop  offset="0.8503" style="stop-color:#DFCC67"/>
		<stop  offset="0.9672" style="stop-color:#E9E78E"/>
		<stop  offset="1" style="stop-color:#ECEF9A"/>
	</linearGradient>
	<path class="st6" d="M448.4,707.3h8.6l10.3,34.5c2.2,7.5,3.8,13.6,6.1,21.1h0.4c2.4-7.5,3.9-13.6,6.1-21.1l10.2-34.5h8.3
		l-20.3,63.9h-9.4L448.4,707.3z"/>
	<linearGradient id="SVGID_6_" gradientUnits="userSpaceOnUse" x1="482.3287" y1="781.1396" x2="554.3287" y2="726.4196">
		<stop  offset="0" style="stop-color:#CDA31E"/>
		<stop  offset="0" style="stop-color:#CEA523"/>
		<stop  offset="0" style="stop-color:#D1AB30"/>
		<stop  offset="0" style="stop-color:#D1AC32"/>
		<stop  offset="4.514918e-02" style="stop-color:#D2AF38"/>
		<stop  offset="0.1071" style="stop-color:#D6B74A"/>
		<stop  offset="0.1787" style="stop-color:#DDC567"/>
		<stop  offset="0.2576" style="stop-color:#E5D88F"/>
		<stop  offset="0.3416" style="stop-color:#F0F0C2"/>
		<stop  offset="0.3591" style="stop-color:#F3F5CE"/>
		<stop  offset="0.6993" style="stop-color:#D6B546"/>
		<stop  offset="0.7569" style="stop-color:#D8BB4F"/>
		<stop  offset="0.8503" style="stop-color:#DFCC67"/>
		<stop  offset="0.9672" style="stop-color:#E9E78E"/>
		<stop  offset="1" style="stop-color:#ECEF9A"/>
	</linearGradient>
	<path class="st7" d="M511.5,766.5c18.7-18.6,29.2-29.8,29.2-39.9c0-7.1-3.9-12.1-11.8-12.1c-5.2,0-9.7,3.3-13.2,7.4l-4.6-4.5
		c5.2-5.7,10.8-9.4,18.8-9.4c11.5,0,18.6,7.2,18.6,18.3c0,11.7-10.7,23.2-25.3,38.6c3.4-0.3,7.2-0.5,10.4-0.5h17.9v6.9h-40.1V766.5z
		"/>
</g>
<g>
	<g>
		<defs>
			<path id="SVGID_7_" d="M517.2,248.5l-16-32.6c-0.5-0.9-1.8-0.9-2.3,0l-16,32.6l-27.5-15.9c-1-0.6-2.1,0.3-1.8,1.4l16.5,57.7
				c0.2,0.8,1.1,1.1,1.8,0.8c3.7-2,14.6-7.3,28.2-7.3s24.5,5.3,28.2,7.3c0.7,0.4,1.6,0,1.8-0.8l16.5-57.7c0.3-1.1-0.9-2-1.8-1.4
				L517.2,248.5z"/>
		</defs>
		<clipPath id="SVGID_8_">
			<use xlink:href="#SVGID_7_"  style="overflow:visible;"/>
		</clipPath>
		<g class="st8">
		</g>
	</g>
</g>
<rect x="1039.8" y="-24.1" class="st9" width="95.9" height="95.9"/>
<rect x="1039.8" y="81.6" class="st10" width="95.9" height="95.9"/>
<rect x="1039.8" y="187.2" class="st11" width="95.9" height="95.9"/>
<rect x="1039.8" y="292.9" class="st12" width="95.9" height="95.9"/>
<rect x="1039.8" y="398.5" class="st13" width="95.9" height="95.9"/>
<g>
	<image style="overflow:visible;" width="246" height="247" xlink:href="B5597C5C.png"  transform="matrix(1 0 0 1 623 288.9655)">
	</image>
</g>
</svg>
